PathFileType	4	(X/Y/Z)	RBDS010\RBDS010runT25.trc
DataRate	CameraRate	NumFrames	NumMarkers	Units	OrigDataRate	OrigDataStartFrame	OrigNumFrames
150.000000	150.000000	4	32	mm	150.000000	0	4500
Frame#	Time	L.ASIS			L.Heel.Bottom			L.Heel.Lateral			L.Heel.Top			L.Iliac.Crest			L.MT5			L.PSIS			L.Shank.Bottom.Lateral			L.Shank.Bottom.Medial			L.Shank.Top.Lateral			L.Shank.Top.Medial			L.Thigh.Bottom.Lateral			L.Thigh.Bottom.Medial			L.Thigh.Top.Lateral			L.Thigh.Top.Medial			R.ASIS			R.ASY			R.Heel.Bottom			R.Heel.Lateral			R.Heel.Top			R.Iliac.Crest			R.MT1			R.MT5			R.PSIS			R.Shank.Bottom.Lateral			R.Shank.Bottom.Medial			R.Shank.Top.Lateral			R.Shank.Top.Medial			R.Thigh.Bottom.Lateral			R.Thigh.Bottom.Medial			R.Thigh.Top.Lateral			R.Thigh.Top.Medial			
		X1	Y1	Z1	X2	Y2	Z2	X3	Y3	Z3	X4	Y4	Z4	X5	Y5	Z5	X6	Y6	Z6	X7	Y7	Z7	X8	Y8	Z8	X9	Y9	Z9	X10	Y10	Z10	X11	Y11	Z11	X12	Y12	Z12	X13	Y13	Z13	X14	Y14	Z14	X15	Y15	Z15	X16	Y16	Z16	X17	Y17	Z17	X18	Y18	Z18	X19	Y19	Z19	X20	Y20	Z20	X21	Y21	Z21	X22	Y22	Z22	X23	Y23	Z23	X24	Y24	Z24	X25	Y25	Z25	X26	Y26	Z26	X27	Y27	Z27	X28	Y28	Z28	X29	Y29	Z29	X30	Y30	Z30	X31	Y31	Z31	X32	Y32	Z32	

1	0	2201.348884024332	912.7134546095501	857.1453853571188	1908.279740737654	35.68828569554518	981.8954235031075	1934.022332359744	49.97791167097468	934.0703176133333	1921.287184281627	85.9962610492268	980.6664939871666	2152.511893735245	995.0578111376204	829.6759748617093	2093.680737283928	40.82374792238806	897.699426989866	2041.642598819178	961.9815310522816	949.4715609245379	2010.543570489846	157.5394206446745	906.544946734204	1983.776034429871	182.638369852317	946.4502456930887	2040.007321401998	227.0234396041566	879.7642062332734	2014.445966953646	253.2784289100855	920.231570550656	2159.540013527736	519.8764104192295	824.5521272802653	2110.301375237909	504.4366034846411	875.3293674959275	2115.304808461642	620.0246123709452	813.8137509660603	2069.962023870306	606.9291639223087	863.0602943944458	2228.591229071332	899.8803426788926	1085.126707765198	1995.863153600606	205.6643995352859	1075.759111260142	1857.968757236995	332.9225509921937	1063.088262528235	1892.162248052218	323.6610339171827	1105.453045588147	1904.37596360289	347.1620200380638	1057.193770724123	2165.344069417294	980.3808911424512	1134.385224809755	1964.376444126955	150.2253148949351	1032.057076026425	1959.661817844371	178.5556217483144	1142.803640158544	2054.292545643681	956.4703345557281	1045.627947537708	2023.274572411713	337.0831280210913	1111.669844508915	2006.491635477009	374.4673544893756	1080.631165256791	2096.143671705059	379.2625566649529	1120.067367803099	2075.294349498959	415.8383126762467	1087.227940616744	2272.152677778292	547.4124886452367	1143.144774669268	2219.231719595482	519.6141413394203	1100.466064685808	2212.213464268533	639.0751760401738	1155.025108577991	2159.473186726288	612.0371492960878	1118.716091641925	
2	0.006666666666666667	2200.043107852081	914.073578999599	856.2000693706689	1891.916346516442	37.99050958102752	982.0309384644247	1917.685918157777	51.90429673130925	934.1990588464141	1905.3257726598	88.13239373263156	980.7096038571638	2152.061736079726	996.7558403762005	829.5009968130147	2076.969716554307	40.85393576427636	898.0023919436793	2041.065119099083	964.06148494995	949.6741806570793	1994.878102864863	159.499953455894	906.8673409491317	1968.708039528007	184.675032573042	946.9540271620341	2025.070921070537	228.8202775341524	880.4450420129258	1999.877896518487	255.1549807737854	920.8922325416395	2149.343787712297	520.7150878922231	825.4658342057421	2099.550890613197	506.8882421034217	876.1570127108264	2107.938264506405	622.0277587198352	814.5313359473911	2062.228952022097	610.3619847331348	863.8144711611847	2228.670182258348	901.8804973423041	1083.753757953986	2014.778490066987	200.7503457495992	1075.874962346405	1871.191713307344	320.9951496790026	1062.106166840364	1905.479873925762	313.4753568017953	1104.656298268679	1916.874936150315	337.3663481739288	1056.33072738363	2166.894656719448	983.0172562473205	1133.997552202512	1986.019257022518	143.7362544625873	1032.22829933258	1979.422055029457	172.0907146550828	1142.716404727378	2054.034299503287	959.0117280300344	1045.940328107627	2036.056667916516	332.5326553476802	1111.237089720446	2017.708363542641	369.3011206615793	1080.264983539201	2107.060230568654	377.7151225878231	1119.86019762081	2084.758584564274	413.4257161098863	1087.108121092958	2278.184905320682	553.5338352954394	1142.962325877312	2226.068439497933	524.6269576405783	1099.760490488567	2215.884772785269	643.2961385745539	1154.956209736593	2164.171821764453	615.3482067473294	1117.886147045712	
3	0.01333333333333333	2198.871158573626	915.5147670939323	855.3098348393896	1875.593793699711	40.51182137901722	982.1446964666723	1901.412734149575	54.01250369089406	934.3043361928598	1889.454463280199	90.46727062676217	980.7230324284354	2151.736591068157	998.5604601458371	829.3326595167938	2060.260038992818	40.92019061533299	898.290861079275	2040.578409438535	966.2581741693457	949.8240735087878	1979.287251934965	161.6036542225836	907.1816947780846	1953.671115587476	186.8528106579942	947.4359853644493	2010.183500681298	230.7670482054241	881.1100898003612	1985.337298640981	257.1758379967107	921.5410520213368	2139.180234379845	521.7220526464544	826.3980053660055	2088.855498865734	509.5218055732429	877.010486253981	2100.640451121674	624.177051336825	815.2628974888114	2054.569110211291	613.956644145621	864.5768788856817	2228.748215631279	904.0062512281542	1082.452844876715	2033.794680879119	195.8180837894726	1075.925765789254	1884.613595902951	308.9147303097954	1061.086185834771	1918.973370450371	303.151212718962	1103.820755421772	1929.532121002771	327.4223457776509	1055.426575887767	2168.340225898449	985.760266978338	1133.627136536254	2007.833066271569	137.2848938531686	1032.338516822799	1999.35843012494	165.6209664497617	1142.573043741196	2053.809373649215	961.6772131970185	1046.209573344732	2048.899554334564	327.8937797422093	1110.762022074369	2028.978437958753	363.9969674806645	1079.855175322835	2117.953596840651	376.0817923170583	1119.606307958534	2094.180295462325	410.8820971042233	1086.945008756474	2284.005676361413	559.6564167451784	1142.751466540292	2232.675460158914	529.6896062827522	1099.053086426243	2219.439253590264	647.5848231129355	1154.869437059315	2168.712240396437	618.7608757538184	1117.068594952739	
4	0.02	2197.963947166817	917.1134063980126	854.5326081634786	1859.342680278871	43.45045517299324	982.2211744670728	1885.251634844135	56.4641788441634	934.3694416690478	1873.749532516452	93.18118886934892	980.6815851734225	2151.668584777314	1000.57284257125	829.1776065266629	2043.54607823267	41.04371583217938	898.5516979154925	2040.271112670382	968.6795735334794	949.8643856486642	1963.829686357467	163.9866686187378	907.4792222959718	1938.690928022589	189.3030825645403	947.879894732754	1995.377480713575	233.0084342697311	881.7459830697686	1970.841346844076	259.4770943492147	922.1717235416177	2129.063589150326	523.0626036968571	827.3629815436681	2078.251982238613	512.5149449209163	877.9132600823216	2093.460746400694	626.6172272683614	816.0205921251812	2047.041619137767	617.8715382906903	865.3585678616475	2228.821970155184	906.384290327116	1081.29949512866	2053.020542519258	190.824143260469	1075.849031135812	1898.422909679602	296.512478448751	1060.003468803181	1932.810941885969	292.5271105279447	1102.917605586136	1942.498013035859	317.1676945693921	1054.455134329686	2169.573792459791	988.7221471657759	1133.286911074626	2029.985262042487	130.8785279656009	1032.321948040589	2019.645752017649	159.1071841803188	1142.315658395736	2053.647071263933	964.5826942896385	1046.386993776775	2061.865112123969	323.0664434516883	1110.210689985702	2040.356436690424	358.4110470138789	1079.3633485157	2128.807126482824	374.2721111214152	1119.265928540528	2103.527212645509	408.0756501622753	1086.696446444944	2289.439075600779	565.7955298595397	1142.481092564213	2238.852482262901	534.8500588446185	1098.350233084003	2222.781497480197	652.0153287965718	1154.740580890595	2172.957461480845	622.3724876348084	1116.279344686323	
